<mxfile host="app.diagrams.net" agent="Mozilla/5.0 (Windows NT 10.0; Win64; x64) AppleWebKit/537.36 (KHTML, like Gecko) Chrome/131.0.0.0 Safari/537.36 Edg/131.0.0.0" version="26.0.2">
  <diagram id="w4WQCMhnAgTO8voxo2fQ" name="第 1 页">
    <mxGraphModel dx="3125" dy="1305" grid="1" gridSize="10" guides="1" tooltips="1" connect="1" arrows="1" fold="1" page="1" pageScale="1" pageWidth="827" pageHeight="1169" math="0" shadow="0">
      <root>
        <mxCell id="0" />
        <mxCell id="1" parent="0" />
        <mxCell id="swbEtP87gtB_8E5ln_Ud-1" value="&amp;lt;&amp;lt;React&amp;gt;&amp;gt;&lt;div&gt;註冊登入頁面&lt;/div&gt;" style="rounded=0;whiteSpace=wrap;html=1;" vertex="1" parent="1">
          <mxGeometry x="200" y="80" width="120" height="60" as="geometry" />
        </mxCell>
        <mxCell id="swbEtP87gtB_8E5ln_Ud-2" value="&amp;lt;&amp;lt;React&amp;gt;&amp;gt;&lt;div&gt;註冊登入前端模組&lt;/div&gt;" style="rounded=0;whiteSpace=wrap;html=1;" vertex="1" parent="1">
          <mxGeometry x="160" y="200" width="200" height="60" as="geometry" />
        </mxCell>
        <mxCell id="swbEtP87gtB_8E5ln_Ud-3" value="" style="rounded=0;whiteSpace=wrap;html=1;" vertex="1" parent="1">
          <mxGeometry x="160" y="260" width="200" height="10" as="geometry" />
        </mxCell>
        <mxCell id="swbEtP87gtB_8E5ln_Ud-4" value="+register&lt;div&gt;+login&lt;/div&gt;" style="rounded=0;whiteSpace=wrap;html=1;align=left;" vertex="1" parent="1">
          <mxGeometry x="160" y="270" width="200" height="40" as="geometry" />
        </mxCell>
        <mxCell id="swbEtP87gtB_8E5ln_Ud-5" value="" style="endArrow=classic;html=1;rounded=0;entryX=0.5;entryY=0;entryDx=0;entryDy=0;exitX=0.5;exitY=1;exitDx=0;exitDy=0;dashed=1;dashPattern=1 2;" edge="1" parent="1" source="swbEtP87gtB_8E5ln_Ud-1" target="swbEtP87gtB_8E5ln_Ud-2">
          <mxGeometry width="50" height="50" relative="1" as="geometry">
            <mxPoint x="290" y="160" as="sourcePoint" />
            <mxPoint x="320" y="200" as="targetPoint" />
          </mxGeometry>
        </mxCell>
        <mxCell id="swbEtP87gtB_8E5ln_Ud-6" value="+USE" style="edgeLabel;html=1;align=center;verticalAlign=middle;resizable=0;points=[];" vertex="1" connectable="0" parent="swbEtP87gtB_8E5ln_Ud-5">
          <mxGeometry x="-0.1635" y="1" relative="1" as="geometry">
            <mxPoint as="offset" />
          </mxGeometry>
        </mxCell>
        <mxCell id="swbEtP87gtB_8E5ln_Ud-7" value="&amp;lt;&amp;lt;React&amp;gt;&amp;gt;&lt;div&gt;使用者狀態頁面&lt;/div&gt;" style="rounded=0;whiteSpace=wrap;html=1;" vertex="1" parent="1">
          <mxGeometry x="454" y="80" width="120" height="60" as="geometry" />
        </mxCell>
        <mxCell id="swbEtP87gtB_8E5ln_Ud-8" value="&amp;lt;&amp;lt;React&amp;gt;&amp;gt;&lt;div&gt;使用者狀態前端模組&lt;/div&gt;" style="rounded=0;whiteSpace=wrap;html=1;" vertex="1" parent="1">
          <mxGeometry x="414" y="200" width="200" height="60" as="geometry" />
        </mxCell>
        <mxCell id="swbEtP87gtB_8E5ln_Ud-9" value="" style="rounded=0;whiteSpace=wrap;html=1;" vertex="1" parent="1">
          <mxGeometry x="414" y="260" width="200" height="10" as="geometry" />
        </mxCell>
        <mxCell id="swbEtP87gtB_8E5ln_Ud-10" value="+queryAllUser&lt;div&gt;+queryUserByKeyword&lt;/div&gt;&lt;div&gt;+changeUserStatus&lt;/div&gt;" style="rounded=0;whiteSpace=wrap;html=1;align=left;" vertex="1" parent="1">
          <mxGeometry x="414" y="270" width="200" height="60" as="geometry" />
        </mxCell>
        <mxCell id="swbEtP87gtB_8E5ln_Ud-11" value="" style="endArrow=classic;html=1;rounded=0;entryX=0.5;entryY=0;entryDx=0;entryDy=0;exitX=0.5;exitY=1;exitDx=0;exitDy=0;dashed=1;dashPattern=1 2;" edge="1" parent="1" source="swbEtP87gtB_8E5ln_Ud-7" target="swbEtP87gtB_8E5ln_Ud-8">
          <mxGeometry width="50" height="50" relative="1" as="geometry">
            <mxPoint x="544" y="160" as="sourcePoint" />
            <mxPoint x="574" y="200" as="targetPoint" />
          </mxGeometry>
        </mxCell>
        <mxCell id="swbEtP87gtB_8E5ln_Ud-12" value="+USE" style="edgeLabel;html=1;align=center;verticalAlign=middle;resizable=0;points=[];" vertex="1" connectable="0" parent="swbEtP87gtB_8E5ln_Ud-11">
          <mxGeometry x="-0.1635" y="1" relative="1" as="geometry">
            <mxPoint as="offset" />
          </mxGeometry>
        </mxCell>
        <mxCell id="swbEtP87gtB_8E5ln_Ud-13" value="&amp;lt;&amp;lt;React&amp;gt;&amp;gt;&lt;div&gt;查詢教室頁面&lt;/div&gt;" style="rounded=0;whiteSpace=wrap;html=1;" vertex="1" parent="1">
          <mxGeometry x="-650" y="80" width="120" height="60" as="geometry" />
        </mxCell>
        <mxCell id="swbEtP87gtB_8E5ln_Ud-14" value="&amp;lt;&amp;lt;React&amp;gt;&amp;gt;&lt;div&gt;查詢教室&lt;span style=&quot;background-color: transparent; color: light-dark(rgb(0, 0, 0), rgb(255, 255, 255));&quot;&gt;前端模組&lt;/span&gt;&lt;/div&gt;" style="rounded=0;whiteSpace=wrap;html=1;" vertex="1" parent="1">
          <mxGeometry x="-690" y="200" width="200" height="60" as="geometry" />
        </mxCell>
        <mxCell id="swbEtP87gtB_8E5ln_Ud-15" value="" style="rounded=0;whiteSpace=wrap;html=1;" vertex="1" parent="1">
          <mxGeometry x="-690" y="260" width="200" height="10" as="geometry" />
        </mxCell>
        <mxCell id="swbEtP87gtB_8E5ln_Ud-16" value="+queryAllClassrrom&lt;div&gt;+queryAllFloor&lt;/div&gt;&lt;div&gt;+queryClassroomByFloor&lt;/div&gt;&lt;div&gt;+searchApplyByStartAndEndTime&lt;/div&gt;&lt;div&gt;+applyClassroom&lt;/div&gt;&lt;div&gt;+banClassroom&lt;/div&gt;&lt;div&gt;+unbanClassroom&lt;/div&gt;&lt;div&gt;+changeKeyStatus&lt;/div&gt;" style="rounded=0;whiteSpace=wrap;html=1;align=left;" vertex="1" parent="1">
          <mxGeometry x="-690" y="270" width="200" height="130" as="geometry" />
        </mxCell>
        <mxCell id="swbEtP87gtB_8E5ln_Ud-17" value="" style="endArrow=classic;html=1;rounded=0;entryX=0.5;entryY=0;entryDx=0;entryDy=0;exitX=0.5;exitY=1;exitDx=0;exitDy=0;dashed=1;dashPattern=1 2;" edge="1" parent="1" source="swbEtP87gtB_8E5ln_Ud-13" target="swbEtP87gtB_8E5ln_Ud-14">
          <mxGeometry width="50" height="50" relative="1" as="geometry">
            <mxPoint x="-560" y="160" as="sourcePoint" />
            <mxPoint x="-530" y="200" as="targetPoint" />
          </mxGeometry>
        </mxCell>
        <mxCell id="swbEtP87gtB_8E5ln_Ud-18" value="+USE" style="edgeLabel;html=1;align=center;verticalAlign=middle;resizable=0;points=[];" vertex="1" connectable="0" parent="swbEtP87gtB_8E5ln_Ud-17">
          <mxGeometry x="-0.1635" y="1" relative="1" as="geometry">
            <mxPoint as="offset" />
          </mxGeometry>
        </mxCell>
        <mxCell id="swbEtP87gtB_8E5ln_Ud-19" value="&amp;lt;&amp;lt;React&amp;gt;&amp;gt;&lt;div&gt;審核申請頁面&lt;/div&gt;" style="rounded=0;whiteSpace=wrap;html=1;" vertex="1" parent="1">
          <mxGeometry x="-380" y="80" width="120" height="60" as="geometry" />
        </mxCell>
        <mxCell id="swbEtP87gtB_8E5ln_Ud-20" value="&amp;lt;&amp;lt;React&amp;gt;&amp;gt;&lt;div&gt;審核申請前端模組&lt;/div&gt;" style="rounded=0;whiteSpace=wrap;html=1;" vertex="1" parent="1">
          <mxGeometry x="-420" y="200" width="200" height="60" as="geometry" />
        </mxCell>
        <mxCell id="swbEtP87gtB_8E5ln_Ud-21" value="" style="rounded=0;whiteSpace=wrap;html=1;" vertex="1" parent="1">
          <mxGeometry x="-420" y="260" width="200" height="10" as="geometry" />
        </mxCell>
        <mxCell id="swbEtP87gtB_8E5ln_Ud-22" value="+queryAllPending&lt;div&gt;+applyResult&lt;/div&gt;&lt;div&gt;+findApplyByAccount&lt;/div&gt;" style="rounded=0;whiteSpace=wrap;html=1;align=left;" vertex="1" parent="1">
          <mxGeometry x="-420" y="270" width="200" height="60" as="geometry" />
        </mxCell>
        <mxCell id="swbEtP87gtB_8E5ln_Ud-23" value="" style="endArrow=classic;html=1;rounded=0;entryX=0.5;entryY=0;entryDx=0;entryDy=0;exitX=0.5;exitY=1;exitDx=0;exitDy=0;dashed=1;dashPattern=1 2;" edge="1" parent="1" source="swbEtP87gtB_8E5ln_Ud-19" target="swbEtP87gtB_8E5ln_Ud-20">
          <mxGeometry width="50" height="50" relative="1" as="geometry">
            <mxPoint x="-290" y="160" as="sourcePoint" />
            <mxPoint x="-260" y="200" as="targetPoint" />
          </mxGeometry>
        </mxCell>
        <mxCell id="swbEtP87gtB_8E5ln_Ud-24" value="+USE" style="edgeLabel;html=1;align=center;verticalAlign=middle;resizable=0;points=[];" vertex="1" connectable="0" parent="swbEtP87gtB_8E5ln_Ud-23">
          <mxGeometry x="-0.1635" y="1" relative="1" as="geometry">
            <mxPoint as="offset" />
          </mxGeometry>
        </mxCell>
        <mxCell id="swbEtP87gtB_8E5ln_Ud-25" value="&amp;lt;&amp;lt;React&amp;gt;&amp;gt;&lt;div&gt;資訊查詢頁面&lt;/div&gt;" style="rounded=0;whiteSpace=wrap;html=1;" vertex="1" parent="1">
          <mxGeometry x="-100" y="80" width="120" height="60" as="geometry" />
        </mxCell>
        <mxCell id="swbEtP87gtB_8E5ln_Ud-26" value="&amp;lt;&amp;lt;React&amp;gt;&amp;gt;&lt;div&gt;資訊查詢前端模組&lt;/div&gt;" style="rounded=0;whiteSpace=wrap;html=1;" vertex="1" parent="1">
          <mxGeometry x="-140" y="200" width="200" height="60" as="geometry" />
        </mxCell>
        <mxCell id="swbEtP87gtB_8E5ln_Ud-27" value="" style="rounded=0;whiteSpace=wrap;html=1;" vertex="1" parent="1">
          <mxGeometry x="-140" y="260" width="200" height="10" as="geometry" />
        </mxCell>
        <mxCell id="swbEtP87gtB_8E5ln_Ud-28" value="+queryAllUser&lt;div&gt;+queryUserByKeyword&lt;br&gt;&lt;div&gt;+findApplyByAccount&lt;/div&gt;&lt;/div&gt;" style="rounded=0;whiteSpace=wrap;html=1;align=left;" vertex="1" parent="1">
          <mxGeometry x="-140" y="270" width="200" height="60" as="geometry" />
        </mxCell>
        <mxCell id="swbEtP87gtB_8E5ln_Ud-29" value="" style="endArrow=classic;html=1;rounded=0;entryX=0.5;entryY=0;entryDx=0;entryDy=0;exitX=0.5;exitY=1;exitDx=0;exitDy=0;dashed=1;dashPattern=1 2;" edge="1" parent="1" source="swbEtP87gtB_8E5ln_Ud-25" target="swbEtP87gtB_8E5ln_Ud-26">
          <mxGeometry width="50" height="50" relative="1" as="geometry">
            <mxPoint x="-10" y="160" as="sourcePoint" />
            <mxPoint x="20" y="200" as="targetPoint" />
          </mxGeometry>
        </mxCell>
        <mxCell id="swbEtP87gtB_8E5ln_Ud-30" value="+USE" style="edgeLabel;html=1;align=center;verticalAlign=middle;resizable=0;points=[];" vertex="1" connectable="0" parent="swbEtP87gtB_8E5ln_Ud-29">
          <mxGeometry x="-0.1635" y="1" relative="1" as="geometry">
            <mxPoint as="offset" />
          </mxGeometry>
        </mxCell>
        <mxCell id="swbEtP87gtB_8E5ln_Ud-31" value="&amp;lt;&amp;lt;React&amp;gt;&amp;gt;&lt;div&gt;校園地圖頁面&lt;/div&gt;" style="rounded=0;whiteSpace=wrap;html=1;" vertex="1" parent="1">
          <mxGeometry x="760" y="80" width="120" height="60" as="geometry" />
        </mxCell>
        <mxCell id="swbEtP87gtB_8E5ln_Ud-32" value="&amp;lt;&amp;lt;React&amp;gt;&amp;gt;&lt;div&gt;校園地圖前端模組&lt;/div&gt;" style="rounded=0;whiteSpace=wrap;html=1;" vertex="1" parent="1">
          <mxGeometry x="720" y="200" width="200" height="60" as="geometry" />
        </mxCell>
        <mxCell id="swbEtP87gtB_8E5ln_Ud-33" value="" style="rounded=0;whiteSpace=wrap;html=1;" vertex="1" parent="1">
          <mxGeometry x="720" y="260" width="200" height="10" as="geometry" />
        </mxCell>
        <mxCell id="swbEtP87gtB_8E5ln_Ud-34" value="" style="rounded=0;whiteSpace=wrap;html=1;align=left;" vertex="1" parent="1">
          <mxGeometry x="720" y="270" width="200" height="10" as="geometry" />
        </mxCell>
        <mxCell id="swbEtP87gtB_8E5ln_Ud-35" value="" style="endArrow=classic;html=1;rounded=0;entryX=0.5;entryY=0;entryDx=0;entryDy=0;exitX=0.5;exitY=1;exitDx=0;exitDy=0;dashed=1;dashPattern=1 2;" edge="1" parent="1" source="swbEtP87gtB_8E5ln_Ud-31" target="swbEtP87gtB_8E5ln_Ud-32">
          <mxGeometry width="50" height="50" relative="1" as="geometry">
            <mxPoint x="850" y="160" as="sourcePoint" />
            <mxPoint x="880" y="200" as="targetPoint" />
          </mxGeometry>
        </mxCell>
        <mxCell id="swbEtP87gtB_8E5ln_Ud-36" value="+USE" style="edgeLabel;html=1;align=center;verticalAlign=middle;resizable=0;points=[];" vertex="1" connectable="0" parent="swbEtP87gtB_8E5ln_Ud-35">
          <mxGeometry x="-0.1635" y="1" relative="1" as="geometry">
            <mxPoint as="offset" />
          </mxGeometry>
        </mxCell>
        <mxCell id="swbEtP87gtB_8E5ln_Ud-39" value="&amp;lt;&amp;lt;React&amp;gt;&amp;gt;&lt;div&gt;註冊登入前端模組&lt;/div&gt;" style="rounded=0;whiteSpace=wrap;html=1;" vertex="1" parent="1">
          <mxGeometry x="330" y="470" width="120" height="60" as="geometry" />
        </mxCell>
        <mxCell id="swbEtP87gtB_8E5ln_Ud-40" value="&amp;lt;&amp;lt;React&amp;gt;&amp;gt;&lt;div&gt;&lt;span style=&quot;background-color: transparent; color: light-dark(rgb(0, 0, 0), rgb(255, 255, 255));&quot;&gt;使用者狀態前端模組&lt;/span&gt;&lt;/div&gt;" style="rounded=0;whiteSpace=wrap;html=1;" vertex="1" parent="1">
          <mxGeometry x="480" y="470" width="120" height="60" as="geometry" />
        </mxCell>
        <mxCell id="swbEtP87gtB_8E5ln_Ud-41" value="RESTful API" style="rounded=0;whiteSpace=wrap;html=1;" vertex="1" parent="1">
          <mxGeometry x="330" y="585" width="120" height="60" as="geometry" />
        </mxCell>
        <mxCell id="swbEtP87gtB_8E5ln_Ud-43" value="" style="endArrow=classic;html=1;rounded=0;entryX=0.5;entryY=0;entryDx=0;entryDy=0;exitX=0.5;exitY=1;exitDx=0;exitDy=0;dashed=1;dashPattern=1 2;" edge="1" parent="1" source="swbEtP87gtB_8E5ln_Ud-39" target="swbEtP87gtB_8E5ln_Ud-41">
          <mxGeometry width="50" height="50" relative="1" as="geometry">
            <mxPoint x="380" y="430" as="sourcePoint" />
            <mxPoint x="380" y="490" as="targetPoint" />
          </mxGeometry>
        </mxCell>
        <mxCell id="swbEtP87gtB_8E5ln_Ud-44" value="+USE" style="edgeLabel;html=1;align=center;verticalAlign=middle;resizable=0;points=[];" vertex="1" connectable="0" parent="swbEtP87gtB_8E5ln_Ud-43">
          <mxGeometry x="-0.1635" y="1" relative="1" as="geometry">
            <mxPoint as="offset" />
          </mxGeometry>
        </mxCell>
        <mxCell id="swbEtP87gtB_8E5ln_Ud-45" value="" style="endArrow=classic;html=1;rounded=0;entryX=0.5;entryY=0;entryDx=0;entryDy=0;exitX=0.5;exitY=1;exitDx=0;exitDy=0;dashed=1;dashPattern=1 2;" edge="1" parent="1" source="swbEtP87gtB_8E5ln_Ud-40" target="swbEtP87gtB_8E5ln_Ud-41">
          <mxGeometry width="50" height="50" relative="1" as="geometry">
            <mxPoint x="270" y="540" as="sourcePoint" />
            <mxPoint x="400" y="595" as="targetPoint" />
          </mxGeometry>
        </mxCell>
        <mxCell id="swbEtP87gtB_8E5ln_Ud-46" value="+USE" style="edgeLabel;html=1;align=center;verticalAlign=middle;resizable=0;points=[];" vertex="1" connectable="0" parent="swbEtP87gtB_8E5ln_Ud-45">
          <mxGeometry x="-0.1635" y="1" relative="1" as="geometry">
            <mxPoint as="offset" />
          </mxGeometry>
        </mxCell>
        <mxCell id="swbEtP87gtB_8E5ln_Ud-47" value="&amp;lt;&amp;lt;SpringBoot&amp;gt;&amp;gt;&lt;div&gt;使用者管理 Controller&lt;/div&gt;" style="rounded=0;whiteSpace=wrap;html=1;" vertex="1" parent="1">
          <mxGeometry x="290" y="700" width="200" height="60" as="geometry" />
        </mxCell>
        <mxCell id="swbEtP87gtB_8E5ln_Ud-48" value="" style="rounded=0;whiteSpace=wrap;html=1;" vertex="1" parent="1">
          <mxGeometry x="290" y="760" width="200" height="10" as="geometry" />
        </mxCell>
        <mxCell id="swbEtP87gtB_8E5ln_Ud-49" value="" style="rounded=0;whiteSpace=wrap;html=1;align=left;" vertex="1" parent="1">
          <mxGeometry x="290" y="770" width="200" height="10" as="geometry" />
        </mxCell>
        <mxCell id="swbEtP87gtB_8E5ln_Ud-50" value="" style="endArrow=classic;html=1;rounded=0;entryX=0.5;entryY=0;entryDx=0;entryDy=0;dashed=1;dashPattern=1 2;" edge="1" parent="1" target="swbEtP87gtB_8E5ln_Ud-47">
          <mxGeometry width="50" height="50" relative="1" as="geometry">
            <mxPoint x="390" y="650" as="sourcePoint" />
            <mxPoint x="400" y="595" as="targetPoint" />
          </mxGeometry>
        </mxCell>
        <mxCell id="swbEtP87gtB_8E5ln_Ud-51" value="+USE" style="edgeLabel;html=1;align=center;verticalAlign=middle;resizable=0;points=[];" vertex="1" connectable="0" parent="swbEtP87gtB_8E5ln_Ud-50">
          <mxGeometry x="-0.1635" y="1" relative="1" as="geometry">
            <mxPoint as="offset" />
          </mxGeometry>
        </mxCell>
        <mxCell id="swbEtP87gtB_8E5ln_Ud-52" value="&amp;lt;&amp;lt;SpringBoot&amp;gt;&amp;gt;&lt;div&gt;使用者管理 Service&lt;/div&gt;" style="rounded=0;whiteSpace=wrap;html=1;" vertex="1" parent="1">
          <mxGeometry x="290" y="830" width="200" height="60" as="geometry" />
        </mxCell>
        <mxCell id="swbEtP87gtB_8E5ln_Ud-53" value="" style="rounded=0;whiteSpace=wrap;html=1;" vertex="1" parent="1">
          <mxGeometry x="290" y="890" width="200" height="10" as="geometry" />
        </mxCell>
        <mxCell id="swbEtP87gtB_8E5ln_Ud-54" value="+register&lt;div&gt;+login&lt;/div&gt;&lt;div&gt;+queryAllUser&lt;/div&gt;&lt;div&gt;+queryUserByKeyword&lt;/div&gt;&lt;div&gt;+changeUserStatus&lt;/div&gt;" style="rounded=0;whiteSpace=wrap;html=1;align=left;" vertex="1" parent="1">
          <mxGeometry x="290" y="900" width="200" height="80" as="geometry" />
        </mxCell>
        <mxCell id="swbEtP87gtB_8E5ln_Ud-55" value="" style="endArrow=classic;html=1;rounded=0;entryX=0.5;entryY=0;entryDx=0;entryDy=0;dashed=1;dashPattern=1 2;exitX=0.5;exitY=1;exitDx=0;exitDy=0;" edge="1" parent="1" target="swbEtP87gtB_8E5ln_Ud-52" source="swbEtP87gtB_8E5ln_Ud-49">
          <mxGeometry width="50" height="50" relative="1" as="geometry">
            <mxPoint x="380" y="690" as="sourcePoint" />
            <mxPoint x="400" y="725" as="targetPoint" />
          </mxGeometry>
        </mxCell>
        <mxCell id="swbEtP87gtB_8E5ln_Ud-56" value="+USE" style="edgeLabel;html=1;align=center;verticalAlign=middle;resizable=0;points=[];" vertex="1" connectable="0" parent="swbEtP87gtB_8E5ln_Ud-55">
          <mxGeometry x="-0.1635" y="1" relative="1" as="geometry">
            <mxPoint as="offset" />
          </mxGeometry>
        </mxCell>
        <mxCell id="swbEtP87gtB_8E5ln_Ud-57" value="&amp;lt;&amp;lt;React&amp;gt;&amp;gt;&lt;div&gt;&lt;span style=&quot;background-color: transparent; color: light-dark(rgb(0, 0, 0), rgb(255, 255, 255));&quot;&gt;資訊查詢&lt;/span&gt;&lt;span style=&quot;background-color: transparent; color: light-dark(rgb(0, 0, 0), rgb(255, 255, 255));&quot;&gt;前端模組&lt;/span&gt;&lt;/div&gt;" style="rounded=0;whiteSpace=wrap;html=1;" vertex="1" parent="1">
          <mxGeometry x="180" y="470" width="120" height="60" as="geometry" />
        </mxCell>
        <mxCell id="swbEtP87gtB_8E5ln_Ud-58" value="" style="endArrow=classic;html=1;rounded=0;entryX=0.5;entryY=0;entryDx=0;entryDy=0;exitX=0.5;exitY=1;exitDx=0;exitDy=0;dashed=1;dashPattern=1 2;" edge="1" parent="1" source="swbEtP87gtB_8E5ln_Ud-57" target="swbEtP87gtB_8E5ln_Ud-41">
          <mxGeometry width="50" height="50" relative="1" as="geometry">
            <mxPoint x="550" y="540" as="sourcePoint" />
            <mxPoint x="400" y="595" as="targetPoint" />
          </mxGeometry>
        </mxCell>
        <mxCell id="swbEtP87gtB_8E5ln_Ud-59" value="+USE" style="edgeLabel;html=1;align=center;verticalAlign=middle;resizable=0;points=[];" vertex="1" connectable="0" parent="swbEtP87gtB_8E5ln_Ud-58">
          <mxGeometry x="-0.1635" y="1" relative="1" as="geometry">
            <mxPoint as="offset" />
          </mxGeometry>
        </mxCell>
        <mxCell id="swbEtP87gtB_8E5ln_Ud-62" value="RESTful API" style="rounded=0;whiteSpace=wrap;html=1;" vertex="1" parent="1">
          <mxGeometry x="-660" y="585" width="120" height="60" as="geometry" />
        </mxCell>
        <mxCell id="swbEtP87gtB_8E5ln_Ud-67" value="&amp;lt;&amp;lt;SpringBoot&amp;gt;&amp;gt;&lt;div&gt;教室管理 Controller&lt;/div&gt;" style="rounded=0;whiteSpace=wrap;html=1;" vertex="1" parent="1">
          <mxGeometry x="-700" y="700" width="200" height="60" as="geometry" />
        </mxCell>
        <mxCell id="swbEtP87gtB_8E5ln_Ud-68" value="" style="rounded=0;whiteSpace=wrap;html=1;" vertex="1" parent="1">
          <mxGeometry x="-700" y="760" width="200" height="10" as="geometry" />
        </mxCell>
        <mxCell id="swbEtP87gtB_8E5ln_Ud-69" value="" style="rounded=0;whiteSpace=wrap;html=1;align=left;" vertex="1" parent="1">
          <mxGeometry x="-700" y="770" width="200" height="10" as="geometry" />
        </mxCell>
        <mxCell id="swbEtP87gtB_8E5ln_Ud-70" value="" style="endArrow=classic;html=1;rounded=0;entryX=0.5;entryY=0;entryDx=0;entryDy=0;dashed=1;dashPattern=1 2;" edge="1" parent="1" target="swbEtP87gtB_8E5ln_Ud-67">
          <mxGeometry width="50" height="50" relative="1" as="geometry">
            <mxPoint x="-600" y="650" as="sourcePoint" />
            <mxPoint x="-590" y="595" as="targetPoint" />
          </mxGeometry>
        </mxCell>
        <mxCell id="swbEtP87gtB_8E5ln_Ud-71" value="+USE" style="edgeLabel;html=1;align=center;verticalAlign=middle;resizable=0;points=[];" vertex="1" connectable="0" parent="swbEtP87gtB_8E5ln_Ud-70">
          <mxGeometry x="-0.1635" y="1" relative="1" as="geometry">
            <mxPoint as="offset" />
          </mxGeometry>
        </mxCell>
        <mxCell id="swbEtP87gtB_8E5ln_Ud-72" value="&amp;lt;&amp;lt;SpringBoot&amp;gt;&amp;gt;&lt;div&gt;教室管理 Service&lt;/div&gt;" style="rounded=0;whiteSpace=wrap;html=1;" vertex="1" parent="1">
          <mxGeometry x="-700" y="830" width="200" height="60" as="geometry" />
        </mxCell>
        <mxCell id="swbEtP87gtB_8E5ln_Ud-73" value="" style="rounded=0;whiteSpace=wrap;html=1;" vertex="1" parent="1">
          <mxGeometry x="-700" y="890" width="200" height="10" as="geometry" />
        </mxCell>
        <mxCell id="swbEtP87gtB_8E5ln_Ud-74" value="+queryAllClassrrom&lt;div&gt;+queryAllFloor&lt;/div&gt;&lt;div&gt;+queryClassroomByFloor&lt;/div&gt;&lt;div&gt;+banClassroom&lt;/div&gt;&lt;div&gt;+unbanClassroom&lt;/div&gt;&lt;div&gt;+changeKeyStatus&lt;/div&gt;" style="rounded=0;whiteSpace=wrap;html=1;align=left;" vertex="1" parent="1">
          <mxGeometry x="-700" y="900" width="200" height="90" as="geometry" />
        </mxCell>
        <mxCell id="swbEtP87gtB_8E5ln_Ud-75" value="" style="endArrow=classic;html=1;rounded=0;entryX=0.5;entryY=0;entryDx=0;entryDy=0;dashed=1;dashPattern=1 2;exitX=0.5;exitY=1;exitDx=0;exitDy=0;" edge="1" parent="1" source="swbEtP87gtB_8E5ln_Ud-69" target="swbEtP87gtB_8E5ln_Ud-72">
          <mxGeometry width="50" height="50" relative="1" as="geometry">
            <mxPoint x="-610" y="690" as="sourcePoint" />
            <mxPoint x="-590" y="725" as="targetPoint" />
          </mxGeometry>
        </mxCell>
        <mxCell id="swbEtP87gtB_8E5ln_Ud-76" value="+USE" style="edgeLabel;html=1;align=center;verticalAlign=middle;resizable=0;points=[];" vertex="1" connectable="0" parent="swbEtP87gtB_8E5ln_Ud-75">
          <mxGeometry x="-0.1635" y="1" relative="1" as="geometry">
            <mxPoint as="offset" />
          </mxGeometry>
        </mxCell>
        <mxCell id="swbEtP87gtB_8E5ln_Ud-77" value="&amp;lt;&amp;lt;React&amp;gt;&amp;gt;&lt;div&gt;&lt;span style=&quot;background-color: transparent; color: light-dark(rgb(0, 0, 0), rgb(255, 255, 255));&quot;&gt;查詢教室前端模組&lt;/span&gt;&lt;/div&gt;" style="rounded=0;whiteSpace=wrap;html=1;" vertex="1" parent="1">
          <mxGeometry x="-660" y="470" width="120" height="60" as="geometry" />
        </mxCell>
        <mxCell id="swbEtP87gtB_8E5ln_Ud-78" value="" style="endArrow=classic;html=1;rounded=0;entryX=0.5;entryY=0;entryDx=0;entryDy=0;exitX=0.5;exitY=1;exitDx=0;exitDy=0;dashed=1;dashPattern=1 2;" edge="1" parent="1" source="swbEtP87gtB_8E5ln_Ud-77" target="swbEtP87gtB_8E5ln_Ud-62">
          <mxGeometry width="50" height="50" relative="1" as="geometry">
            <mxPoint x="-440" y="540" as="sourcePoint" />
            <mxPoint x="-590" y="595" as="targetPoint" />
          </mxGeometry>
        </mxCell>
        <mxCell id="swbEtP87gtB_8E5ln_Ud-79" value="+USE" style="edgeLabel;html=1;align=center;verticalAlign=middle;resizable=0;points=[];" vertex="1" connectable="0" parent="swbEtP87gtB_8E5ln_Ud-78">
          <mxGeometry x="-0.1635" y="1" relative="1" as="geometry">
            <mxPoint as="offset" />
          </mxGeometry>
        </mxCell>
        <mxCell id="swbEtP87gtB_8E5ln_Ud-80" value="&amp;lt;&amp;lt;SpringBoot&amp;gt;&amp;gt;&lt;div&gt;使用者管理 Repo&lt;/div&gt;" style="rounded=0;whiteSpace=wrap;html=1;" vertex="1" parent="1">
          <mxGeometry x="290" y="1030" width="200" height="60" as="geometry" />
        </mxCell>
        <mxCell id="swbEtP87gtB_8E5ln_Ud-81" value="" style="rounded=0;whiteSpace=wrap;html=1;" vertex="1" parent="1">
          <mxGeometry x="290" y="1090" width="200" height="10" as="geometry" />
        </mxCell>
        <mxCell id="swbEtP87gtB_8E5ln_Ud-82" value="" style="rounded=0;whiteSpace=wrap;html=1;align=left;" vertex="1" parent="1">
          <mxGeometry x="290" y="1100" width="200" height="10" as="geometry" />
        </mxCell>
        <mxCell id="swbEtP87gtB_8E5ln_Ud-84" value="" style="endArrow=classic;html=1;rounded=0;entryX=0.5;entryY=0;entryDx=0;entryDy=0;dashed=1;dashPattern=1 2;exitX=0.5;exitY=1;exitDx=0;exitDy=0;" edge="1" parent="1">
          <mxGeometry width="50" height="50" relative="1" as="geometry">
            <mxPoint x="389.5" y="980" as="sourcePoint" />
            <mxPoint x="389.5" y="1030" as="targetPoint" />
          </mxGeometry>
        </mxCell>
        <mxCell id="swbEtP87gtB_8E5ln_Ud-85" value="+USE" style="edgeLabel;html=1;align=center;verticalAlign=middle;resizable=0;points=[];" vertex="1" connectable="0" parent="swbEtP87gtB_8E5ln_Ud-84">
          <mxGeometry x="-0.1635" y="1" relative="1" as="geometry">
            <mxPoint as="offset" />
          </mxGeometry>
        </mxCell>
        <mxCell id="swbEtP87gtB_8E5ln_Ud-86" value="&amp;lt;&amp;lt;SpringBoot&amp;gt;&amp;gt;&lt;div&gt;教室管理 Repo&lt;/div&gt;" style="rounded=0;whiteSpace=wrap;html=1;" vertex="1" parent="1">
          <mxGeometry x="-700" y="1040" width="200" height="60" as="geometry" />
        </mxCell>
        <mxCell id="swbEtP87gtB_8E5ln_Ud-87" value="" style="rounded=0;whiteSpace=wrap;html=1;" vertex="1" parent="1">
          <mxGeometry x="-700" y="1100" width="200" height="10" as="geometry" />
        </mxCell>
        <mxCell id="swbEtP87gtB_8E5ln_Ud-88" value="" style="rounded=0;whiteSpace=wrap;html=1;align=left;" vertex="1" parent="1">
          <mxGeometry x="-700" y="1110" width="200" height="10" as="geometry" />
        </mxCell>
        <mxCell id="swbEtP87gtB_8E5ln_Ud-90" value="" style="endArrow=classic;html=1;rounded=0;entryX=0.5;entryY=0;entryDx=0;entryDy=0;dashed=1;dashPattern=1 2;exitX=0.5;exitY=1;exitDx=0;exitDy=0;" edge="1" parent="1">
          <mxGeometry width="50" height="50" relative="1" as="geometry">
            <mxPoint x="-600.5" y="990" as="sourcePoint" />
            <mxPoint x="-600.5" y="1040" as="targetPoint" />
          </mxGeometry>
        </mxCell>
        <mxCell id="swbEtP87gtB_8E5ln_Ud-91" value="+USE" style="edgeLabel;html=1;align=center;verticalAlign=middle;resizable=0;points=[];" vertex="1" connectable="0" parent="swbEtP87gtB_8E5ln_Ud-90">
          <mxGeometry x="-0.1635" y="1" relative="1" as="geometry">
            <mxPoint as="offset" />
          </mxGeometry>
        </mxCell>
        <mxCell id="swbEtP87gtB_8E5ln_Ud-92" value="&amp;lt;&amp;lt;React&amp;gt;&amp;gt;&lt;div&gt;審核申請前端模組&lt;/div&gt;" style="rounded=0;whiteSpace=wrap;html=1;" vertex="1" parent="1">
          <mxGeometry x="-250" y="470" width="120" height="60" as="geometry" />
        </mxCell>
        <mxCell id="swbEtP87gtB_8E5ln_Ud-93" value="&amp;lt;&amp;lt;React&amp;gt;&amp;gt;&lt;div&gt;&lt;span style=&quot;background-color: transparent; color: light-dark(rgb(0, 0, 0), rgb(255, 255, 255));&quot;&gt;資訊查詢前端模組&lt;/span&gt;&lt;/div&gt;" style="rounded=0;whiteSpace=wrap;html=1;" vertex="1" parent="1">
          <mxGeometry x="-100" y="470" width="120" height="60" as="geometry" />
        </mxCell>
        <mxCell id="swbEtP87gtB_8E5ln_Ud-94" value="RESTful API" style="rounded=0;whiteSpace=wrap;html=1;" vertex="1" parent="1">
          <mxGeometry x="-250" y="585" width="120" height="60" as="geometry" />
        </mxCell>
        <mxCell id="swbEtP87gtB_8E5ln_Ud-95" value="" style="endArrow=classic;html=1;rounded=0;entryX=0.5;entryY=0;entryDx=0;entryDy=0;exitX=0.5;exitY=1;exitDx=0;exitDy=0;dashed=1;dashPattern=1 2;" edge="1" parent="1" source="swbEtP87gtB_8E5ln_Ud-92" target="swbEtP87gtB_8E5ln_Ud-94">
          <mxGeometry width="50" height="50" relative="1" as="geometry">
            <mxPoint x="-200" y="430" as="sourcePoint" />
            <mxPoint x="-200" y="490" as="targetPoint" />
          </mxGeometry>
        </mxCell>
        <mxCell id="swbEtP87gtB_8E5ln_Ud-96" value="+USE" style="edgeLabel;html=1;align=center;verticalAlign=middle;resizable=0;points=[];" vertex="1" connectable="0" parent="swbEtP87gtB_8E5ln_Ud-95">
          <mxGeometry x="-0.1635" y="1" relative="1" as="geometry">
            <mxPoint as="offset" />
          </mxGeometry>
        </mxCell>
        <mxCell id="swbEtP87gtB_8E5ln_Ud-97" value="" style="endArrow=classic;html=1;rounded=0;entryX=0.5;entryY=0;entryDx=0;entryDy=0;exitX=0.5;exitY=1;exitDx=0;exitDy=0;dashed=1;dashPattern=1 2;" edge="1" parent="1" source="swbEtP87gtB_8E5ln_Ud-93" target="swbEtP87gtB_8E5ln_Ud-94">
          <mxGeometry width="50" height="50" relative="1" as="geometry">
            <mxPoint x="-310" y="540" as="sourcePoint" />
            <mxPoint x="-180" y="595" as="targetPoint" />
          </mxGeometry>
        </mxCell>
        <mxCell id="swbEtP87gtB_8E5ln_Ud-98" value="+USE" style="edgeLabel;html=1;align=center;verticalAlign=middle;resizable=0;points=[];" vertex="1" connectable="0" parent="swbEtP87gtB_8E5ln_Ud-97">
          <mxGeometry x="-0.1635" y="1" relative="1" as="geometry">
            <mxPoint as="offset" />
          </mxGeometry>
        </mxCell>
        <mxCell id="swbEtP87gtB_8E5ln_Ud-99" value="&amp;lt;&amp;lt;SpringBoot&amp;gt;&amp;gt;&lt;div&gt;申請管理 Controller&lt;/div&gt;" style="rounded=0;whiteSpace=wrap;html=1;" vertex="1" parent="1">
          <mxGeometry x="-290" y="700" width="200" height="60" as="geometry" />
        </mxCell>
        <mxCell id="swbEtP87gtB_8E5ln_Ud-100" value="" style="rounded=0;whiteSpace=wrap;html=1;" vertex="1" parent="1">
          <mxGeometry x="-290" y="760" width="200" height="10" as="geometry" />
        </mxCell>
        <mxCell id="swbEtP87gtB_8E5ln_Ud-101" value="" style="rounded=0;whiteSpace=wrap;html=1;align=left;" vertex="1" parent="1">
          <mxGeometry x="-290" y="770" width="200" height="10" as="geometry" />
        </mxCell>
        <mxCell id="swbEtP87gtB_8E5ln_Ud-102" value="" style="endArrow=classic;html=1;rounded=0;entryX=0.5;entryY=0;entryDx=0;entryDy=0;dashed=1;dashPattern=1 2;" edge="1" parent="1" target="swbEtP87gtB_8E5ln_Ud-99">
          <mxGeometry width="50" height="50" relative="1" as="geometry">
            <mxPoint x="-190" y="650" as="sourcePoint" />
            <mxPoint x="-180" y="595" as="targetPoint" />
          </mxGeometry>
        </mxCell>
        <mxCell id="swbEtP87gtB_8E5ln_Ud-103" value="+USE" style="edgeLabel;html=1;align=center;verticalAlign=middle;resizable=0;points=[];" vertex="1" connectable="0" parent="swbEtP87gtB_8E5ln_Ud-102">
          <mxGeometry x="-0.1635" y="1" relative="1" as="geometry">
            <mxPoint as="offset" />
          </mxGeometry>
        </mxCell>
        <mxCell id="swbEtP87gtB_8E5ln_Ud-104" value="&amp;lt;&amp;lt;SpringBoot&amp;gt;&amp;gt;&lt;div&gt;申請管理 Service&lt;/div&gt;" style="rounded=0;whiteSpace=wrap;html=1;" vertex="1" parent="1">
          <mxGeometry x="-290" y="830" width="200" height="60" as="geometry" />
        </mxCell>
        <mxCell id="swbEtP87gtB_8E5ln_Ud-105" value="" style="rounded=0;whiteSpace=wrap;html=1;" vertex="1" parent="1">
          <mxGeometry x="-290" y="890" width="200" height="10" as="geometry" />
        </mxCell>
        <mxCell id="swbEtP87gtB_8E5ln_Ud-106" value="&lt;div&gt;+searchApplyByStartAndEndTime&lt;/div&gt;&lt;div&gt;+applyClassroom&lt;/div&gt;&lt;div&gt;+queryAllPending&lt;div&gt;+applyResult&lt;/div&gt;&lt;div&gt;+findApplyByAccount&lt;/div&gt;&lt;/div&gt;" style="rounded=0;whiteSpace=wrap;html=1;align=left;" vertex="1" parent="1">
          <mxGeometry x="-290" y="900" width="200" height="80" as="geometry" />
        </mxCell>
        <mxCell id="swbEtP87gtB_8E5ln_Ud-107" value="" style="endArrow=classic;html=1;rounded=0;entryX=0.5;entryY=0;entryDx=0;entryDy=0;dashed=1;dashPattern=1 2;exitX=0.5;exitY=1;exitDx=0;exitDy=0;" edge="1" parent="1" source="swbEtP87gtB_8E5ln_Ud-101" target="swbEtP87gtB_8E5ln_Ud-104">
          <mxGeometry width="50" height="50" relative="1" as="geometry">
            <mxPoint x="-200" y="690" as="sourcePoint" />
            <mxPoint x="-180" y="725" as="targetPoint" />
          </mxGeometry>
        </mxCell>
        <mxCell id="swbEtP87gtB_8E5ln_Ud-108" value="+USE" style="edgeLabel;html=1;align=center;verticalAlign=middle;resizable=0;points=[];" vertex="1" connectable="0" parent="swbEtP87gtB_8E5ln_Ud-107">
          <mxGeometry x="-0.1635" y="1" relative="1" as="geometry">
            <mxPoint as="offset" />
          </mxGeometry>
        </mxCell>
        <mxCell id="swbEtP87gtB_8E5ln_Ud-109" value="&amp;lt;&amp;lt;React&amp;gt;&amp;gt;&lt;div&gt;&lt;span style=&quot;background-color: transparent; color: light-dark(rgb(0, 0, 0), rgb(255, 255, 255));&quot;&gt;查詢教室前端模組&lt;/span&gt;&lt;/div&gt;" style="rounded=0;whiteSpace=wrap;html=1;" vertex="1" parent="1">
          <mxGeometry x="-400" y="470" width="120" height="60" as="geometry" />
        </mxCell>
        <mxCell id="swbEtP87gtB_8E5ln_Ud-110" value="" style="endArrow=classic;html=1;rounded=0;entryX=0.5;entryY=0;entryDx=0;entryDy=0;exitX=0.5;exitY=1;exitDx=0;exitDy=0;dashed=1;dashPattern=1 2;" edge="1" parent="1" source="swbEtP87gtB_8E5ln_Ud-109" target="swbEtP87gtB_8E5ln_Ud-94">
          <mxGeometry width="50" height="50" relative="1" as="geometry">
            <mxPoint x="-30" y="540" as="sourcePoint" />
            <mxPoint x="-180" y="595" as="targetPoint" />
          </mxGeometry>
        </mxCell>
        <mxCell id="swbEtP87gtB_8E5ln_Ud-111" value="+USE" style="edgeLabel;html=1;align=center;verticalAlign=middle;resizable=0;points=[];" vertex="1" connectable="0" parent="swbEtP87gtB_8E5ln_Ud-110">
          <mxGeometry x="-0.1635" y="1" relative="1" as="geometry">
            <mxPoint as="offset" />
          </mxGeometry>
        </mxCell>
        <mxCell id="swbEtP87gtB_8E5ln_Ud-112" value="&amp;lt;&amp;lt;SpringBoot&amp;gt;&amp;gt;&lt;div&gt;申請管理 Repo&lt;/div&gt;" style="rounded=0;whiteSpace=wrap;html=1;" vertex="1" parent="1">
          <mxGeometry x="-290" y="1030" width="200" height="60" as="geometry" />
        </mxCell>
        <mxCell id="swbEtP87gtB_8E5ln_Ud-113" value="" style="rounded=0;whiteSpace=wrap;html=1;" vertex="1" parent="1">
          <mxGeometry x="-290" y="1090" width="200" height="10" as="geometry" />
        </mxCell>
        <mxCell id="swbEtP87gtB_8E5ln_Ud-114" value="" style="rounded=0;whiteSpace=wrap;html=1;align=left;" vertex="1" parent="1">
          <mxGeometry x="-290" y="1100" width="200" height="10" as="geometry" />
        </mxCell>
        <mxCell id="swbEtP87gtB_8E5ln_Ud-115" value="" style="endArrow=classic;html=1;rounded=0;entryX=0.5;entryY=0;entryDx=0;entryDy=0;dashed=1;dashPattern=1 2;exitX=0.5;exitY=1;exitDx=0;exitDy=0;" edge="1" parent="1">
          <mxGeometry width="50" height="50" relative="1" as="geometry">
            <mxPoint x="-190.5" y="980" as="sourcePoint" />
            <mxPoint x="-190.5" y="1030" as="targetPoint" />
          </mxGeometry>
        </mxCell>
        <mxCell id="swbEtP87gtB_8E5ln_Ud-116" value="+USE" style="edgeLabel;html=1;align=center;verticalAlign=middle;resizable=0;points=[];" vertex="1" connectable="0" parent="swbEtP87gtB_8E5ln_Ud-115">
          <mxGeometry x="-0.1635" y="1" relative="1" as="geometry">
            <mxPoint as="offset" />
          </mxGeometry>
        </mxCell>
      </root>
    </mxGraphModel>
  </diagram>
</mxfile>
